
<svg xmlns="http://www.w3.org/2000/svg" width="160" height="48" viewBox="0 0 160 48" fill="none">
  <path d="M86.25 15.91C87.55 14.33 88.38 12.28 88.18 10.20C86.33 10.29 84.05 11.45 82.70 13.03C81.50 14.42 80.48 16.54 80.70 18.55C82.77 18.69 84.95 17.50 86.25 15.91Z" fill="black"/>
  <path d="M88.12 18.82C85.16 18.82 83.24 20.31 82.04 20.31C80.78 20.31 79.05 18.89 76.63 18.89C73.31 18.89 70.21 21.09 68.57 24.48C65.28 31.27 67.75 41.32 70.92 46.71C72.48 49.36 74.36 52.28 76.86 52.18C79.30 52.08 80.21 50.65 83.19 50.65C86.15 50.65 87.00 52.18 89.55 52.12C92.15 52.08 93.75 49.50 95.30 46.85C97.12 43.83 97.87 40.85 97.90 40.71C97.83 40.69 92.40 38.69 92.33 32.00C92.28 26.36 96.72 23.97 96.90 23.85C94.63 20.42 91.12 20.09 89.68 20.02C86.77 19.84 84.15 21.07 82.83 21.07C81.58 21.07 79.42 19.92 76.60 19.92" fill="black"/>
</svg>
