
<svg xmlns="http://www.w3.org/2000/svg" width="160" height="48" viewBox="0 0 160 48" fill="none">
  <path d="M66.63 24.77C66.63 29.20 62.96 32.50 58.50 32.50C54.04 32.50 50.37 29.20 50.37 24.77C50.37 20.31 54.04 17.04 58.50 17.04C62.96 17.04 66.63 20.31 66.63 24.77ZM63.54 24.77C63.54 22.07 61.25 20.05 58.50 20.05C55.75 20.05 53.46 22.07 53.46 24.77C53.46 27.44 55.75 29.49 58.50 29.49C61.25 29.49 63.54 27.44 63.54 24.77Z" fill="#EA4335"/>
  <path d="M82.71 24.77C82.71 29.20 79.04 32.50 74.58 32.50C70.12 32.50 66.46 29.20 66.46 24.77C66.46 20.31 70.12 17.04 74.58 17.04C79.04 17.04 82.71 20.31 82.71 24.77ZM79.62 24.77C79.62 22.07 77.33 20.05 74.58 20.05C71.83 20.05 69.54 22.07 69.54 24.77C69.54 27.44 71.83 29.49 74.58 29.49C77.33 29.49 79.62 27.44 79.62 24.77Z" fill="#FBBC05"/>
  <path d="M98.13 17.53V31.34C98.13 37.04 94.71 39.59 90.54 39.59C86.63 39.59 84.13 36.89 83.25 34.64L85.96 33.53C86.5 34.92 88.08 36.58 90.54 36.58C93.58 36.58 95.33 34.81 95.33 31.50V30.31H95.17C94.33 31.34 92.71 32.20 90.75 32.20C86.67 32.20 82.88 28.69 82.88 24.80C82.88 20.88 86.67 17.34 90.75 17.34C92.71 17.34 94.33 18.20 95.17 19.20H95.33V17.53H98.13ZM95.42 24.80C95.42 22.13 93.33 20.05 90.75 20.05C88.13 20.05 85.88 22.13 85.88 24.80C85.88 27.44 88.13 29.49 90.75 29.49C93.33 29.49 95.42 27.44 95.42 24.80Z" fill="#4285F4"/>
  <path d="M104.83 9.82V31.99H101.83V9.82H104.83Z" fill="#34A853"/>
  <path d="M116.83 26.14L119.25 27.74C118.33 29.14 116.21 32.20 111.96 32.20C106.75 32.20 102.96 28.34 102.96 24.54C102.96 20.48 106.79 17.04 111.58 17.04C116.42 17.04 118.33 20.57 119.04 22.23L119.42 23.06L107.58 28.20C108.5 29.90 110.17 31.00 111.96 31.00C113.75 31.00 115.13 30.20 116.83 26.14ZM107.04 25.91L115.29 22.44C114.92 21.43 113.63 20.27 111.83 20.27C109.54 20.27 106.92 22.01 107.04 25.91Z" fill="#EA4335"/>
</svg>
