
<svg xmlns="http://www.w3.org/2000/svg" width="160" height="48" viewBox="0 0 160 48" fill="none">
  <path d="M38.98 10H30.81V12.17H38.98V10Z" fill="#1F70C1"/>
  <path d="M38.98 12.93H30.81V15.11H38.98V12.93Z" fill="#1F70C1"/>
  <path d="M42.65 15.86H34.89V18.03H42.65V15.86Z" fill="#1F70C1"/>
  <path d="M34.13 15.86H26.36V18.03H34.13V15.86Z" fill="#1F70C1"/>
  <path d="M42.65 18.78H34.89V20.96H42.65V18.78Z" fill="#1F70C1"/>
  <path d="M34.13 18.78H26.36V20.96H34.13V18.78Z" fill="#1F70C1"/>
  <path d="M42.65 21.71H34.89V23.89H42.65V21.71Z" fill="#1F70C1"/>
  <path d="M34.13 21.71H26.36V23.89H34.13V21.71Z" fill="#1F70C1"/>
  <path d="M42.65 24.64H34.89V26.81H42.65V24.64Z" fill="#1F70C1"/>
  <path d="M34.13 24.64H26.36V26.81H34.13V24.64Z" fill="#1F70C1"/>
  <path d="M42.65 27.57H34.89V29.74H42.65V27.57Z" fill="#1F70C1"/>
  <path d="M34.13 27.57H26.36V29.74H34.13V27.57Z" fill="#1F70C1"/>
  <path d="M42.65 30.49H34.89V32.67H42.65V30.49Z" fill="#1F70C1"/>
  <path d="M34.13 30.49H26.36V32.67H34.13V30.49Z" fill="#1F70C1"/>
  <path d="M38.98 33.42H30.81V35.59H38.98V33.42Z" fill="#1F70C1"/>
  <path d="M38.98 36.35H30.81V38.52H38.98V36.35Z" fill="#1F70C1"/>
  <path d="M53.82 32.67C53.82 31.47 52.85 30.49 51.65 30.49H47.98C47.27 30.49 46.64 30.83 46.26 31.36C45.88 30.83 45.25 30.49 44.54 30.49H40.87C39.67 30.49 38.69 31.47 38.69 32.67V38.52H40.87V32.67H44.54V38.52H46.71V32.67H50.38V38.52H52.56V32.67H53.82Z" fill="#1F70C1"/>
  <path d="M60.33 33.42C60.33 31.83 59.04 30.49 57.38 30.49H51.65V38.52H53.82V35.59H55.99L57.38 38.52H59.56L58.02 35.59C59.36 35.59 60.33 34.62 60.33 33.42ZM57.38 33.42H53.82V32.67H57.38C57.77 32.67 58.16 33.03 58.16 33.42C58.16 33.81 57.8 33.42 57.38 33.42Z" fill="#1F70C1"/>
  <path d="M64.76 32.67H68.44C68.82 32.67 69.14 33 69.14 33.42C69.14 33.81 68.82 34.16 68.44 34.16H64.76V32.67ZM74.87 38.52H72.37L70.24 35.59H64.76V38.52H62.59V30.49H68.44C70.04 30.49 71.34 31.83 71.34 33.42C71.34 34.62 70.56 35.59 69.53 35.95L71.7 38.52H74.87Z" fill="#1F70C1"/>
  <path d="M81.38 34.83C80.97 35.59 80.2 36.35 79.2 36.35H75.53V32.67H79.2C80.2 32.67 80.97 33.42 81.38 34.19C81.38 34.42 81.38 34.62 81.38 34.83ZM81.38 30.49H75.53C74.33 30.49 73.36 31.47 73.36 32.67V38.52H79.2C82.09 38.52 83.55 36.71 83.55 34.52C83.55 32.31 82.09 30.49 81.38 30.49Z" fill="#1F70C1"/>
  <path d="M94.74 33.03V38.52H96.91V32.67C96.91 31.47 95.94 30.49 94.74 30.49H89C87.8 30.49 86.83 31.47 86.83 32.67V38.52H89V32.67H94.74V33.03Z" fill="#1F70C1"/>
  <path d="M104.59 38.52H106.77V30.49H104.59V38.52Z" fill="#1F70C1"/>
  <path d="M110.45 30.49H108.27V38.52H114.12V36.35H110.45V30.49Z" fill="#1F70C1"/>
  <path d="M120.65 35.59H125.48V33.42H120.65V32.67H125.48V30.49H120.65C119.45 30.49 118.47 31.47 118.47 32.67V36.35C118.47 37.54 119.45 38.52 120.65 38.52H125.48V36.35H120.65V35.59Z" fill="#1F70C1"/>
  <path d="M134.04 32.67V30.49H129.21C128.01 30.49 127.04 31.47 127.04 32.67V38.52H134.04V36.35H129.21V35.59H134.04V33.42H129.21V32.67H134.04Z" fill="#1F70C1"/>
</svg>
