
<svg xmlns="http://www.w3.org/2000/svg" width="160" height="48" viewBox="0 0 160 48" fill="none">
  <path d="M67.32 33.56H72.42L76.69 24.39L80.95 33.56H86.05L92.73 17.77H87.62L83.99 26.88L79.82 17.77H73.55L69.38 26.88L65.75 17.77H60.64L67.32 33.56Z" fill="#0081FB"/>
  <path d="M93.4 25.67C93.4 30.35 97.03 34.02 102.19 34.02C107.35 34.02 110.98 30.35 110.98 25.67C110.98 20.98 107.35 17.31 102.19 17.31C97.03 17.31 93.4 20.98 93.4 25.67ZM98.09 25.67C98.09 23.39 99.83 21.67 102.19 21.67C104.54 21.67 106.29 23.39 106.29 25.67C106.29 27.96 104.54 29.66 102.19 29.66C99.83 29.66 98.09 27.94 98.09 25.67Z" fill="#0081FB"/>
  <path d="M131.71 17.77H126.82V24.07C126.82 28.85 124.78 29.73 122.05 29.73C119.38 29.73 118.3 28.37 118.3 24.92V17.77H113.41V25.84C113.41 31.67 116.5 34.02 121.2 34.02C124.01 34.02 125.84 32.88 126.82 31.44V33.56H131.71V17.77Z" fill="#0081FB"/>
  <path d="M44.87 14.52C46.58 14.52 47.98 13.12 47.98 11.41C47.98 9.71 46.58 8.31 44.87 8.31C43.17 8.31 41.77 9.71 41.77 11.41C41.77 13.12 43.17 14.52 44.87 14.52Z" fill="#0081FB"/>
  <path d="M47.33 17.77H42.41V33.56H47.33V17.77Z" fill="#0081FB"/>
  <path d="M132.53 25.67C132.53 30.35 136.16 34.02 141.32 34.02C146.48 34.02 150.11 30.35 150.11 25.67C150.11 20.98 146.48 17.31 141.32 17.31C136.16 17.31 132.53 20.98 132.53 25.67ZM137.22 25.67C137.22 23.39 138.96 21.67 141.32 21.67C143.67 21.67 145.42 23.39 145.42 25.67C145.42 27.96 143.67 29.66 141.32 29.66C138.96 29.66 137.22 27.94 137.22 25.67Z" fill="#1877F2"/>
  <path d="M30 12.43C27.64 12.43 25.81 13.56 24.83 15V12.88H19.94V39.69H24.83V31.44C25.82 32.88 27.64 34.02 30.01 34.02C34.74 34.02 38.79 30.23 38.79 23.23C38.79 16.23 34.73 12.43 30 12.43ZM28.55 29.73C26.12 29.73 24.43 27.79 24.43 23.23C24.43 18.66 26.12 16.73 28.55 16.73C30.99 16.73 32.72 18.67 32.72 23.23C32.72 27.79 30.99 29.73 28.55 29.73Z" fill="#1877F2"/>
  <path d="M53.71 17.31C51.09 17.31 49.46 18.63 48.49 20.23V17.77H43.6V33.56H48.49V24.21C48.49 22.62 49.61 21.25 51.35 21.25C53.1 21.25 54.03 22.62 54.03 24.45V33.56H58.91V23.04C58.91 19.75 56.94 17.31 53.71 17.31Z" fill="#1877F2"/>
</svg>
