
<svg xmlns="http://www.w3.org/2000/svg" width="160" height="48" viewBox="0 0 160 48" fill="none">
  <path d="M75.56 21.82H71.46V33.10H68.54V21.82H64.46V19.23H75.56V21.82Z" fill="#737373"/>
  <path d="M76.7 19.23H79.62V33.10H76.7V19.23Z" fill="#737373"/>
  <path d="M88.36 23.16C88.03 22.86 87.59 22.72 87.03 22.72C86.47 22.72 86.02 22.87 85.68 23.16C85.35 23.46 85.08 23.85 84.9 24.34C84.72 24.83 84.62 25.38 84.62 25.99C84.62 26.61 84.72 27.16 84.91 27.65C85.1 28.14 85.37 28.53 85.71 28.83C86.05 29.12 86.48 29.27 87 29.27C87.57 29.27 88.05 29.11 88.41 28.78C88.77 28.46 89 28.03 89.12 27.51H92.03C91.87 28.39 91.57 29.16 91.12 29.82C90.67 30.48 90.09 31 89.38 31.37C88.67 31.74 87.86 31.93 86.96 31.93C85.89 31.93 84.95 31.69 84.14 31.21C83.33 30.73 82.69 30.05 82.24 29.16C81.79 28.28 81.56 27.25 81.56 26.08C81.56 24.89 81.79 23.85 82.26 22.96C82.72 22.07 83.37 21.39 84.19 20.93C85.01 20.47 85.95 20.24 87 20.24C87.84 20.24 88.61 20.4 89.3 20.72C89.99 21.04 90.56 21.51 91.02 22.14C91.48 22.76 91.77 23.52 91.9 24.41H88.99C88.88 23.9 88.68 23.48 88.36 23.16Z" fill="#737373"/>
  <path d="M95.64 20.47H98.55V33.1H95.64V20.47ZM97.1 18.75C96.58 18.75 96.15 18.6 95.8 18.29C95.45 17.99 95.28 17.61 95.28 17.17C95.28 16.72 95.45 16.35 95.8 16.04C96.15 15.74 96.58 15.58 97.1 15.58C97.61 15.58 98.04 15.73 98.39 16.04C98.74 16.34 98.91 16.72 98.91 17.16C98.91 17.61 98.74 17.99 98.39 18.29C98.04 18.59 97.61 18.75 97.1 18.75Z" fill="#737373"/>
  <path d="M106.85 23.13C106.5 22.85 106.06 22.71 105.53 22.71C104.83 22.71 104.29 22.93 103.91 23.36C103.54 23.8 103.35 24.41 103.35 25.19V33.1H100.44V20.47H103.22V22.22C103.5 21.62 103.88 21.14 104.37 20.81C104.87 20.47 105.45 20.3 106.11 20.3C106.72 20.3 107.25 20.46 107.68 20.79L106.85 23.13Z" fill="#737373"/>
  <path d="M108.89 20.47H111.8V33.1H108.89V20.47ZM110.35 18.75C109.83 18.75 109.4 18.6 109.05 18.29C108.7 17.99 108.53 17.61 108.53 17.17C108.53 16.72 108.7 16.35 109.05 16.04C109.4 15.74 109.83 15.58 110.35 15.58C110.86 15.58 111.29 15.73 111.64 16.04C111.99 16.34 112.16 16.72 112.16 17.16C112.16 17.61 111.99 17.99 111.64 18.29C111.29 18.59 110.86 18.75 110.35 18.75Z" fill="#737373"/>
  <path d="M119.11 23.19C118.65 22.88 118.08 22.72 117.42 22.72C116.64 22.72 116.02 22.95 115.55 23.41C115.08 23.87 114.85 24.52 114.85 25.37V33.1H111.94V20.47H114.71V22.19C115 21.55 115.42 21.06 115.99 20.72C116.56 20.38 117.2 20.21 117.91 20.21C118.67 20.21 119.3 20.4 119.8 20.77L119.11 23.19Z" fill="#737373"/>
  <path d="M126.92 20.3C127.84 20.3 128.68 20.53 129.45 20.98C130.22 21.43 130.83 22.09 131.28 22.94C131.74 23.79 131.97 24.8 131.97 25.97C131.97 27.14 131.74 28.16 131.28 29.01C130.83 29.86 130.22 30.52 129.45 30.97C128.68 31.42 127.84 31.65 126.92 31.65C126.01 31.65 125.21 31.44 124.51 31.02C123.81 30.6 123.31 30.02 123 29.28V37.22H120.1V20.47H122.89V22.73C123.18 22.02 123.67 21.45 124.36 21.01C125.07 20.57 125.92 20.3 126.92 20.3ZM123.56 25.99C123.56 26.6 123.68 27.15 123.91 27.63C124.14 28.11 124.47 28.48 124.89 28.75C125.31 29.02 125.78 29.15 126.32 29.15C126.86 29.15 127.33 29.02 127.75 28.75C128.17 28.48 128.49 28.1 128.73 27.63C128.96 27.15 129.08 26.61 129.08 25.99C129.08 25.38 128.96 24.83 128.73 24.35C128.49 23.87 128.17 23.49 127.75 23.22C127.33 22.94 126.86 22.81 126.32 22.81C125.78 22.81 125.31 22.94 124.89 23.22C124.47 23.49 124.14 23.87 123.91 24.35C123.68 24.83 123.56 25.37 123.56 25.99Z" fill="#737373"/>
  <path d="M139.67 27.91L139.62 27.95H136.22V25.25H144.28C144.39 25.65 144.44 26.09 144.44 26.55C144.44 27.61 144.22 28.56 143.79 29.41C143.35 30.25 142.72 30.92 141.91 31.39C141.09 31.86 140.15 32.1 139.08 32.1C138 32.1 137.04 31.86 136.21 31.39C135.38 30.92 134.73 30.25 134.27 29.37C133.81 28.5 133.58 27.49 133.58 26.34C133.58 25.18 133.82 24.15 134.3 23.29C134.78 22.42 135.44 21.76 136.29 21.29C137.13 20.83 138.09 20.6 139.17 20.6C140.22 20.6 141.16 20.83 141.97 21.3C142.77 21.77 143.39 22.42 143.84 23.26C144.28 24.1 144.5 25.03 144.5 26.07C144.5 26.74 144.44 27.36 144.35 27.92H139.67V27.91ZM136.34 23.03C135.46 23.43 134.82 24.16 134.5 25.03H139.71V25.07H143.54C143.42 24.56 143.22 24.11 142.94 23.71C142.66 23.32 142.3 23.01 141.86 22.8C141.42 22.59 140.93 22.48 140.38 22.48C139.6 22.48 138.9 22.65 138.28 22.98C137.6 22.67 136.96 22.75 136.34 23.03Z" fill="#737373"/>
  <path d="M153.14 20.47H156.04V33.1H153.27V31.35C152.96 31.95 152.53 32.43 151.97 32.78C151.41 33.13 150.77 33.3 150.07 33.3C149.3 33.3 148.61 33.12 148.02 32.76C147.42 32.41 146.96 31.9 146.64 31.25C146.31 30.6 146.15 29.84 146.15 28.96V20.47H149.06V28.38C149.06 29.16 149.25 29.77 149.62 30.21C149.99 30.65 150.5 30.87 151.12 30.87C151.66 30.87 152.1 30.73 152.45 30.45C152.79 30.17 153.05 29.78 153.22 29.29C153.38 28.8 153.47 28.25 153.47 27.64V20.47H153.14Z" fill="#737373"/>
  <path d="M158.4 20.47H161.31V33.1H158.4V20.47ZM159.85 18.75C159.34 18.75 158.91 18.6 158.56 18.29C158.21 17.99 158.04 17.61 158.04 17.17C158.04 16.72 158.21 16.35 158.56 16.04C158.91 15.74 159.34 15.58 159.85 15.58C160.37 15.58 160.8 15.73 161.15 16.04C161.5 16.34 161.67 16.72 161.67 17.16C161.67 17.61 161.5 17.99 161.15 18.29C160.8 18.59 160.37 18.75 159.85 18.75Z" fill="#737373"/>
  <rect x="23" y="9" width="13" height="13" fill="#F25022"/>
  <rect x="38" y="9" width="13" height="13" fill="#7FBA00"/>
  <rect x="23" y="24" width="13" height="13" fill="#00A4EF"/>
  <rect x="38" y="24" width="13" height="13" fill="#FFB900"/>
</svg>
