<svg width="200" height="50" viewBox="0 0 200 50" xmlns="http://www.w3.org/2000/svg">
  <!-- MatchSense Logo -->
  <defs>
    <linearGradient id="logoGradient" x1="0%" y1="0%" x2="100%" y2="0%">
      <stop offset="0%" stop-color="#0063D1" />
      <stop offset="100%" stop-color="#CCFF00" />
    </linearGradient>
  </defs>
  
  <!-- M -->
  <path d="M10,10 L15,10 L20,25 L25,10 L30,10 L30,40 L25,40 L25,20 L20,35 L15,20 L15,40 L10,40 Z" fill="#111111" />
  
  <!-- a -->
  <path d="M35,25 C35,20 38,20 40,20 C42,20 45,20 45,25 L45,40 L40,40 L40,37 C39,39 37,40 35,40 C33,40 30,39 30,35 C30,31 33,30 35,30 L40,30 L40,25 C40,23 38,23 37,23 C36,23 35,24 35,25 Z M40,33 L37,33 C36,33 35,34 35,35 C35,36 36,37 37,37 C39,37 40,36 40,33 Z" fill="#111111" />
  
  <!-- t -->
  <path d="M50,15 L50,20 L47,20 L47,35 C47,37 48,37 50,37 L50,40 C46,40 42,39 42,35 L42,20 L40,20 L40,15 L42,15 L42,10 L47,10 L47,15 Z" fill="#111111" />
  
  <!-- c -->
  <path d="M55,30 C55,34 57,37 60,37 C62,37 63,36 64,35 L67,38 C65,40 63,41 60,41 C55,41 50,37 50,30 C50,23 55,19 60,19 C63,19 65,20 67,22 L64,25 C63,24 62,23 60,23 C57,23 55,26 55,30 Z" fill="#111111" />
  
  <!-- h -->
  <path d="M70,10 L75,10 L75,23 C76,21 78,20 80,20 C84,20 85,23 85,26 L85,40 L80,40 L80,27 C80,25 79,24 77,24 C75,24 75,26 75,27 L75,40 L70,40 Z" fill="#111111" />
  
  <!-- S -->
  <path d="M100,20 C100,15 104,10 110,10 C114,10 117,12 119,14 L116,18 C114,16 112,15 110,15 C107,15 105,17 105,20 C105,27 120,24 120,34 C120,39 116,44 110,44 C105,44 102,42 100,40 L103,36 C105,38 107,39 110,39 C113,39 115,37 115,34 C115,27 100,30 100,20 Z" fill="url(#logoGradient)" />
  
  <!-- e -->
  <path d="M125,30 C125,24 129,20 134,20 C140,20 143,25 142,32 L130,32 C130,35 132,37 135,37 C137,37 138,36 139,35 L142,38 C140,40 137,41 135,41 C129,41 125,37 125,30 Z M134,24 C131,24 130,26 130,28 L138,28 C138,26 136,24 134,24 Z" fill="url(#logoGradient)" />
  
  <!-- n -->
  <path d="M145,20 L150,20 L150,23 C151,21 153,20 155,20 C159,20 160,23 160,26 L160,40 L155,40 L155,27 C155,25 154,24 152,24 C150,24 150,26 150,27 L150,40 L145,40 Z" fill="url(#logoGradient)" />
  
  <!-- s -->
  <path d="M165,30 C165,24 169,20 174,20 C176,20 178,21 179,22 L177,26 C176,25 175,24 174,24 C171,24 170,27 170,30 C170,33 171,36 174,36 C175,36 176,35 177,34 L179,38 C178,39 176,40 174,40 C169,40 165,36 165,30 Z" fill="url(#logoGradient)" />
  
  <!-- e -->
  <path d="M185,30 C185,24 189,20 194,20 C200,20 203,25 202,32 L190,32 C190,35 192,37 195,37 C197,37 198,36 199,35 L202,38 C200,40 197,41 195,41 C189,41 185,37 185,30 Z M194,24 C191,24 190,26 190,28 L198,28 C198,26 196,24 194,24 Z" fill="url(#logoGradient)" />
  
  <!-- Swoosh element -->
  <path d="M5,45 C15,35 30,40 45,45 C60,50 80,45 95,40 C110,35 130,30 150,35 C170,40 185,45 195,40" stroke="url(#logoGradient)" stroke-width="2" fill="none" />
</svg>